# xmcd CD database file
#
# Track frame offsets:
#	150
#	12176
#	38064
#	57993
#	68018
#	84770
#	98001
#	110928
#	121462
#	136214
#	145483
#	157515
#
# Disc length: 2253 seconds
#
# Revision: 0
# Processed by: cddbd v1.5.2PL0 Copyright (c) Steve Scherf et al.
# Submitted via: CDex 1.51
#
DISCID=9508cb0c
DTITLE=Dove Brothers Quartet - The song we sing
DYEAR=2002
DGENRE=Country
TTITLE0=When I move to hallelujah Square
TTITLE1=I Ppedge alliance to the Lamb
TTITLE2=More of me
TTITLE3=Live like Jesus
TTITLE4=He's already done (what he said he would do)
TTITLE5=One step
TTITLE6=Something with Me
TTITLE7=Didn't it raine
TTITLE8=the Easter gate
TTITLE9=House of prayer
TTITLE10=Come on, Let's get to that land
TTITLE11=Get away Jordan
EXTD=YEAR: 2002
EXTT0=
EXTT1=
EXTT2=
EXTT3=
EXTT4=
EXTT5=
EXTT6=
EXTT7=
EXTT8=
EXTT9=
EXTT10=
EXTT11=
PLAYORDER=
